<svg id="Capa_1" enable-background="new 0 0 511.957 511.957" height="512" viewBox="0 0 511.957 511.957" width="512" xmlns="http://www.w3.org/2000/svg"><g><g><g><g><path d="m215.595 180.702h52.764v30.563c0 5.523 4.478 10 10 10h17.393c-9.074 11.546-18.952 26.824-18.952 38.622 0 22.071 17.956 40.026 40.026 40.026s40.026-17.956 40.026-40.026c0-11.798-9.878-27.076-18.952-38.622h17.393c5.522 0 10-4.477 10-10v-30.563h52.764c18.709 0 33.93-15.221 33.93-33.93v-136.772c0-5.523-4.478-10-10-10h-81.429c-5.522 0-10 4.477-10 10s4.478 10 10 10h71.429v126.772c0 7.681-6.249 13.93-13.93 13.93h-202.462c-7.681 0-13.93-6.249-13.93-13.93v-126.772h68.48c5.522 0 10-4.477 10-10s-4.478-10-10-10h-78.48c-5.523 0-10 4.477-10 10v136.772c0 18.709 15.221 33.93 33.93 33.93zm101.232 99.211c-11.043 0-20.026-8.984-20.026-20.026 0-6.113 9.41-20.327 20.026-32.744 10.616 12.417 20.026 26.631 20.026 32.744 0 11.042-8.983 20.026-20.026 20.026zm28.467-99.211v20.563h-56.936v-20.563z"/><path d="m306.3 13.82c1.622 3.956 5.765 6.491 10.026 6.147 4.125-.333 7.678-3.249 8.819-7.224 1.139-3.968-.352-8.38-3.705-10.807-3.28-2.373-7.737-2.545-11.183-.421-4.105 2.528-5.81 7.857-3.957 12.305z"/><path d="m498.066 360.391c-4.346-9.391-12.484-16.602-22.33-19.785-3.751-1.212-7.643-1.805-11.522-1.795-.454-1.077-.957-2.134-1.51-3.168-4.873-9.121-13.027-15.726-22.961-18.599-9.9-2.862-20.282-1.647-29.249 3.419l-6.88 3.729c-4.941-8.373-12.747-14.435-22.147-17.154-9.901-2.862-20.281-1.649-29.25 3.419l-37.593 20.377c-1.84-.299-3.715-.461-5.612-.477l-86.831-5.496c-27.541-1.745-54.852 1.575-81.172 9.859-.232.073-.462.155-.689.245l-123.583 49.088c-3.809 1.513-6.309 5.196-6.309 9.294v97.815c0 3.119 1.455 6.059 3.935 7.95 2.479 1.893 5.7 2.52 8.707 1.694l91.256-24.995 106.09 30.024c14.49 4.101 29.391 6.121 44.25 6.121 29.364 0 58.562-7.889 84.079-23.2l134.691-80.814c16.347-9.808 22.637-30.251 14.63-47.551zm-77.957-22.391c.06-.032.119-.065.178-.099 4.258-2.421 9.194-3.005 13.9-1.645 4.443 1.285 8.134 4.146 10.475 8.098l-132.654 74.556-50.365-13.982c17.231.003 34.08.008 46.226.016h.023c15.099 0 28.627-9.065 34.468-23.096l.259-.621c.214-.515.416-1.033.606-1.554zm-58.279-10.005c.06-.032.119-.065.178-.099 4.259-2.423 9.197-3.005 13.901-1.646 4.21 1.218 7.745 3.851 10.096 7.486l-42.104 22.822c-1.036-3.45-2.588-6.773-4.645-9.856-1.08-1.618-2.275-3.133-3.57-4.537zm111.317 62.797-134.69 80.814c-33.72 20.231-74.758 25.692-112.594 14.985l-108.77-30.783c-.89-.252-1.807-.378-2.723-.378-.888 0-1.777.118-2.642.355l-81.3 22.268v-77.919l116.93-46.446c23.857-7.463 48.607-10.447 73.559-8.868 0 0 87.546 5.535 87.756 5.535h.021c5.691 0 10.768 2.715 13.928 7.45 3.164 4.74 3.723 10.476 1.534 15.733l-.259.621c-2.728 6.553-9.009 10.786-16.005 10.786h-.012c-37.448-.023-119.667-.023-119.667-.023-5.001 0-9.233 3.695-9.909 8.65-.675 4.955 2.415 9.647 7.234 10.985l125.097 34.729c2.548.707 5.271.378 7.574-.918l137.638-77.357c4.236-2.38 9.114-2.866 13.736-1.374 4.622 1.495 8.292 4.746 10.332 9.154 3.705 8.004.794 17.463-6.768 22.001z"/><path d="m267.095 70.309v40.085c0 5.523 4.478 10 10 10h9.688v9.689c0 5.523 4.478 10 10 10h40.086c5.522 0 10-4.477 10-10v-9.689h9.688c5.522 0 10-4.477 10-10v-40.085c0-5.523-4.478-10-10-10h-9.688v-9.689c0-5.523-4.478-10-10-10h-40.086c-5.522 0-10 4.477-10 10v9.689h-9.688c-5.522 0-10 4.477-10 10zm20 10h9.688c5.522 0 10-4.477 10-10v-9.689h20.086v9.689c0 5.523 4.478 10 10 10h9.688v20.085h-9.688c-5.522 0-10 4.477-10 10v9.689h-20.086v-9.689c0-5.523-4.478-10-10-10h-9.688z"/></g></g></g></g></svg>