<?xml version="1.0" encoding="iso-8859-1"?>
<!-- Generator: Adobe Illustrator 21.0.0, SVG Export Plug-In . SVG Version: 6.00 Build 0)  -->
<svg xmlns="http://www.w3.org/2000/svg" xmlns:xlink="http://www.w3.org/1999/xlink" version="1.1" id="Capa_1" x="0px" y="0px" viewBox="0 0 512 512" style="enable-background:new 0 0 512 512;" xml:space="preserve" width="512" height="512">
<g>
	<path d="M346.939,195.59c-31.867-1.999-60.124-11.3-81.717-26.896c-5.176-3.738-12.15-3.791-17.382-0.13   c-22.425,15.691-51.05,25.037-82.779,27.026c-8.268,0.519-14.55,7.642-14.032,15.91c0.499,7.948,7.101,14.062,14.957,14.062   c0.315,0,0.634-0.01,0.953-0.03c33.324-2.09,63.997-11.281,89.388-26.704c24.782,15.412,55.224,24.602,88.734,26.704   c8.27,0.509,15.391-5.764,15.91-14.031C361.489,203.232,355.207,196.109,346.939,195.59z"/>
	<path d="M316,256H196c-8.284,0-15,6.716-15,15s6.716,15,15,15h120c8.284,0,15-6.716,15-15S324.284,256,316,256z"/>
	<path d="M512,241c0-57.897-47.103-105-105-105h-46.835c-24.793,0-46.099-5.739-61.616-16.596C286.016,110.635,271.302,106,256,106   c-15.302,0-30.015,4.635-42.549,13.404C197.934,130.261,176.628,136,151.835,136H105C47.103,136,0,183.103,0,241   c0,56.016,44.093,101.926,99.393,104.85C116.247,359.427,179.629,406,256,406c76.37,0,139.753-46.573,156.606-60.15   C467.907,342.926,512,297.016,512,241z M30,241c0-36.219,25.808-66.522,60-73.491v146.981C55.808,307.522,30,277.219,30,241z    M120,323.862V166h31.835c31.42,0,57.937-7.407,78.814-22.015C238.116,138.761,246.882,136,256,136   c9.118,0,17.884,2.761,25.351,7.985C302.229,158.593,328.745,166,360.165,166H392v157.862C375.297,336.856,319.684,376,256,376   S136.703,336.856,120,323.862z M422,314.491V167.509c34.192,6.968,60,37.271,60,73.491S456.192,307.522,422,314.491z"/>
	<path d="M286,316h-60c-8.284,0-15,6.716-15,15s6.716,15,15,15h60c8.284,0,15-6.716,15-15S294.284,316,286,316z"/>
</g>















</svg>
