<svg id="Capa_1" enable-background="new 0 0 512 512" height="512" viewBox="0 0 512 512" width="512" xmlns="http://www.w3.org/2000/svg"><g><path d="m151.627 206.344c-17.857 0-32.386 14.528-32.386 32.386v43.197c0 17.857 14.528 32.385 32.386 32.385h208.747c17.857 0 32.386-14.527 32.386-32.385v-43.197c0-17.857-14.528-32.386-32.386-32.386zm226.133 32.385v43.197c0 9.586-7.799 17.385-17.386 17.385h-208.747c-9.587 0-17.386-7.799-17.386-17.385v-43.197c0-9.587 7.799-17.386 17.386-17.386h208.747c9.587.001 17.386 7.8 17.386 17.386z"/><path d="m473.457 113.902c.792-2.702 1.224-5.556 1.224-8.51 0-16.721-13.603-30.324-30.323-30.324-5.708 0-11.051 1.587-15.615 4.34-2.602-20.895-20.46-37.123-42.048-37.123-23.372 0-42.387 19.015-42.387 42.387 0 3.505.436 6.909 1.242 10.169h-207.479c-4.143 0-7.5 3.357-7.5 7.5s3.357 7.5 7.5 7.5h214.543c7.728 10.437 20.126 17.218 34.08 17.218 11.246 0 21.474-4.411 29.07-11.582 4.166 11.776 15.408 20.238 28.593 20.238 8.331 0 15.886-3.378 21.373-8.835 19.694 15.298 31.27 38.71 31.27 63.901v139.094c0 44.63-36.31 80.939-80.939 80.939h-271.968c-5.523-10.241-16.352-17.217-28.78-17.217-8.97 0-17.106 3.635-23.017 9.508-7.748-11.131-20.597-18.164-34.795-18.164-6.134 0-11.962 1.32-17.231 3.675-16.116-15.269-25.27-36.407-25.27-58.741v-139.094c0-44.631 36.31-80.94 80.94-80.94h12.145c4.143 0 7.5-3.357 7.5-7.5s-3.357-7.5-7.5-7.5h-12.145c-52.901 0-95.94 43.039-95.94 95.94v139.094c0 25.397 9.987 49.487 27.662 67.381-7.744 7.684-12.549 18.327-12.549 30.072 0 3.192.368 6.407 1.096 9.557.925 4.008 4.927 6.559 8.994 5.621 4.036-.932 6.553-4.958 5.621-8.994-.472-2.045-.711-4.125-.711-6.184 0-15.102 12.285-27.387 27.387-27.387 11.919 0 22.357 7.667 26.012 18.845-.566 2.406-.876 4.91-.876 7.487 0 2.986.41 5.876 1.164 8.625-3.333 11.581-14.104 19.816-26.301 19.816-4.21 0-8.251-.932-12.009-2.77-3.724-1.82-8.214-.277-10.032 3.442-1.82 3.722-.278 8.213 3.442 10.032 5.828 2.85 12.085 4.295 18.599 4.295 14.644 0 27.971-7.673 35.623-19.483 5.832 5.406 13.629 8.719 22.189 8.719 18.018 0 32.677-14.659 32.677-32.677 0-.154-.01-.306-.012-.459h268.083c52.901 0 95.939-43.038 95.939-95.939v-139.093c.002-30.492-14.296-58.787-38.541-76.879zm-86.763-1.843c-15.102 0-27.387-12.285-27.387-27.387s12.285-27.387 27.387-27.387 27.387 12.285 27.387 27.387-12.285 27.387-27.387 27.387zm57.663 8.656c-8.45 0-15.324-6.874-15.324-15.323 0-8.45 6.874-15.324 15.324-15.324 8.449 0 15.323 6.874 15.323 15.324.001 8.449-6.873 15.323-15.323 15.323zm-329.045 323.235c-9.746 0-17.676-7.93-17.676-17.677 0-9.746 7.93-17.676 17.676-17.676 9.747 0 17.677 7.93 17.677 17.676 0 9.748-7.929 17.677-17.677 17.677z"/><path d="m454.5 287.648c4.143 0 7.5-3.357 7.5-7.5v-89.368c0-25.331-20.608-45.939-45.939-45.939h-320.121c-25.332 0-45.94 20.608-45.94 45.939v139.095c0 25.331 20.608 45.939 45.94 45.939h320.12c25.331 0 45.939-20.608 45.939-45.939v-19.74c0-4.143-3.357-7.5-7.5-7.5s-7.5 3.357-7.5 7.5v19.74c0 17.06-13.88 30.939-30.939 30.939h-320.12c-17.061 0-30.94-13.88-30.94-30.939v-139.095c0-17.061 13.88-30.939 30.94-30.939h320.12c17.06 0 30.939 13.879 30.939 30.939v89.368c.001 4.143 3.358 7.5 7.501 7.5z"/><path d="m335.582 252.828h-159.163c-4.143 0-7.5 3.357-7.5 7.5s3.357 7.5 7.5 7.5h159.163c4.143 0 7.5-3.357 7.5-7.5s-3.357-7.5-7.5-7.5z"/></g></svg>